<?xml version="1.0" encoding="utf-8"?>
<!-- Generator: Adobe Illustrator 26.0.3, SVG Export Plug-In . SVG Version: 6.00 Build 0)  -->
<svg version="1.1" id="Layer_1" xmlns="http://www.w3.org/2000/svg" xmlns:xlink="http://www.w3.org/1999/xlink" x="0px" y="0px"
	 viewBox="0 0 670.3 225.1" style="enable-background:new 0 0 670.3 225.1;" xml:space="preserve">
<style type="text/css">
	.st0{fill:#FFFFFF;}
</style>
<g>
	<g>
		<path class="st0" d="M29.2,119.3c-5.3,2.3-9.5,4.3-12.6,5.6c-5.3,2.3-6.4-3.5-3.6-4.8c9.5-4.4,17.7-8.5,26.5-12.4
			c7.2-10.8,10.5-20.2,17.7-31c1.7-2.7,1.2-3.6-1.1-2.8c-12.6,5.3-24.2,10.3-36.7,15.9c-8.1,3.7-5.6-3.5-2.4-5.2
			c27-14.6,57.1-28.8,111.7-43.4v-3.6v-0.5H1.5H0v0.5V101v11.8c0,12.6,0.8,22.6,2.4,30.2c1.5,7,4,13.4,7.5,18.9
			c6-11.8,12.8-23,19-34.7c0.9-1.7,5.1-8.6,4.5-9.1C33,117.7,31.8,117.9,29.2,119.3z"/>
		<path class="st0" d="M53.4,97.9c-3.1,4.8-0.8,4.6,2.1,3.3c12-5,23.4-8.4,35-12.3c13.5-3.9,12.2,7.3,2.2,9.9
			c-15.9,4-30.4,8.5-45.2,14c-1.3,0.5-2.3,1.4-2.8,2.6c-8.5,19.3-17.6,38.1-25.3,57.5c3.8,3.2,8.1,6,13,8.4
			c9.4,4.4,19.5,6.7,30.2,6.7c11.1,0,20.9-1.9,29.5-5.8s15.9-9.7,22.2-17.6c0.5-0.5,0.9-1,1.2-1.5s0.8-1,1.2-1.5
			c4.4-6.4,7.5-13.2,9.3-20.5c1-4,1.7-8.6,2.1-13.8c0.4-4.4,0.5-9.2,0.5-14.5V84.8V56.9v-3.9c-16.4,2.5-33.4,6.4-51,12.5
			C70.7,68.3,60.4,87.1,53.4,97.9z"/>
	</g>
	<g>
		<g>
			<path class="st0" d="M168,153.2c-0.7-0.7-1.5-1.1-2.3-1.4c-0.8-0.3-1.6-0.5-2.5-0.5c-1.8,0-3.3,0.5-4.3,1.6
				c-1.1,1.1-1.6,2.5-1.6,4.4c0,1.8,0.5,3.2,1.5,4.3c1,1,2.4,1.6,4.1,1.6c1,0,1.9-0.2,2.8-0.5c0.9-0.3,1.6-0.8,2.3-1.5l0,3.7
				c-0.8,0.5-1.6,0.8-2.4,1c-0.9,0.2-1.7,0.3-2.7,0.3c-2.7,0-4.9-0.8-6.7-2.5c-1.7-1.7-2.6-3.8-2.6-6.4c0-2.6,0.9-4.7,2.6-6.4
				c1.7-1.7,4-2.5,6.7-2.5c0.9,0,1.8,0.1,2.7,0.3c0.9,0.2,1.7,0.5,2.5,0.9L168,153.2z"/>
			<path class="st0" d="M176.2,165.8v-17h10v3.1h-6.4v3.5h6.4v3.1h-6.4v4.3h6.4v3.1L176.2,165.8L176.2,165.8z"/>
			<path class="st0" d="M194.5,165.8v-17h3.8l7.5,9.9c0.2,0.3,0.5,0.7,0.7,1.2c0.3,0.5,0.5,1.1,0.8,1.8c-0.1-0.5-0.1-1-0.2-1.5
				c0-0.5-0.1-1.1-0.1-1.9v-9.5h3.5v17H207l-7.8-10.1c-0.2-0.3-0.5-0.7-0.7-1.2c-0.3-0.5-0.5-1.1-0.8-1.8c0.1,0.5,0.1,1,0.2,1.5
				c0,0.5,0.1,1.1,0.1,1.9v9.7L194.5,165.8L194.5,165.8z"/>
			<path class="st0" d="M225.5,151.8v13.9h-3.7v-13.9h-4.2v-3.1h12v3.1C229.7,151.8,225.5,151.8,225.5,151.8z"/>
			<path class="st0" d="M249.2,165.8H245l-4.5-8v8h-3.6v-17h5.2c2.1,0,3.6,0.4,4.7,1.2c1,0.8,1.5,2,1.5,3.6c0,1.2-0.4,2.2-1.1,3
				s-1.6,1.3-2.7,1.4L249.2,165.8z M240.5,156h0.5c1.5,0,2.4-0.2,2.9-0.5s0.7-0.9,0.7-1.7c0-0.8-0.3-1.4-0.8-1.8
				c-0.5-0.4-1.5-0.5-2.9-0.5h-0.5V156z"/>
			<path class="st0" d="M273.5,157.3c0,1.2-0.2,2.4-0.7,3.5s-1.1,2-2,2.9c-0.9,0.9-1.9,1.5-3,1.9s-2.3,0.7-3.4,0.7
				c-1,0-2.1-0.2-3.1-0.5c-1-0.4-1.9-0.9-2.7-1.5c-1.1-0.9-1.9-1.9-2.5-3.1c-0.6-1.2-0.9-2.5-0.9-3.8c0-1.2,0.2-2.4,0.7-3.4
				c0.5-1.1,1.1-2,2-2.9c0.9-0.8,1.9-1.5,3-1.9c1.1-0.5,2.3-0.7,3.5-0.7c1.2,0,2.3,0.2,3.5,0.7c1.1,0.5,2.1,1.1,3,1.9
				c0.9,0.8,1.5,1.8,2,2.9C273.3,154.9,273.5,156.1,273.5,157.3z M264.4,163c1.5,0,2.8-0.5,3.8-1.6c1-1.1,1.5-2.4,1.5-4.1
				c0-1.6-0.5-3-1.5-4.1c-1-1.1-2.3-1.7-3.8-1.7c-1.5,0-2.8,0.5-3.8,1.6c-1,1.1-1.5,2.5-1.5,4.1c0,1.6,0.5,3,1.5,4.1
				C261.6,162.4,262.9,163,264.4,163z"/>
			<path class="st0" d="M308.1,148.7v10.6c0,2.3-0.6,4-1.8,5.2c-1.2,1.1-3.1,1.7-5.5,1.7c-2.5,0-4.3-0.6-5.6-1.7
				c-1.2-1.1-1.8-2.9-1.8-5.2v-10.6h3.6v10c0,1.4,0.3,2.5,0.9,3.2c0.6,0.7,1.5,1.1,2.8,1.1s2.2-0.4,2.8-1.1c0.6-0.7,0.9-1.8,0.9-3.2
				v-10L308.1,148.7L308.1,148.7z"/>
			<path class="st0" d="M316.6,165.8v-17h3.8l7.5,9.9c0.2,0.3,0.5,0.7,0.7,1.2c0.3,0.5,0.5,1.1,0.8,1.8c-0.1-0.5-0.1-1-0.2-1.5
				s-0.1-1.1-0.1-1.9v-9.5h3.5v17h-3.6l-7.8-10.1c-0.2-0.3-0.5-0.7-0.7-1.2c-0.3-0.5-0.5-1.1-0.8-1.8c0.1,0.5,0.1,1,0.2,1.5
				c0,0.5,0.1,1.1,0.1,1.9v9.7L316.6,165.8L316.6,165.8z"/>
			<path class="st0" d="M341.3,165.8v-17h3.6v17H341.3z"/>
			<path class="st0" d="M357.9,165.8l-6.3-17h4l3.3,10.6c0.1,0.2,0.2,0.6,0.3,1.2c0.1,0.6,0.3,1.3,0.4,2c0.1-0.7,0.2-1.4,0.3-1.9
				c0.1-0.6,0.2-1,0.4-1.4l3.4-10.5h4l-6.3,17L357.9,165.8L357.9,165.8z"/>
			<path class="st0" d="M374.3,165.8v-17h10v3.1H378v3.5h6.4v3.1H378v4.3h6.4v3.1L374.3,165.8L374.3,165.8z"/>
			<path class="st0" d="M405,165.8h-4.2l-4.5-8v8h-3.6v-17h5.2c2.1,0,3.6,0.4,4.7,1.2c1,0.8,1.5,2,1.5,3.6c0,1.2-0.4,2.2-1.1,3
				s-1.6,1.3-2.7,1.4L405,165.8z M396.4,156h0.5c1.5,0,2.4-0.2,2.9-0.5s0.7-0.9,0.7-1.7c0-0.8-0.3-1.4-0.8-1.8
				c-0.5-0.4-1.5-0.5-2.9-0.5h-0.5V156z"/>
			<path class="st0" d="M410.8,163.6l2-2.3c0.3,0.6,0.7,1.1,1.2,1.5c0.6,0.4,1.2,0.5,1.9,0.5c0.9,0,1.5-0.2,2-0.6
				c0.5-0.4,0.7-0.9,0.7-1.6c0-0.8-0.8-1.6-2.5-2.4c-0.5-0.3-1-0.5-1.3-0.6c-1.5-0.8-2.5-1.5-3.1-2.3c-0.6-0.7-0.9-1.6-0.9-2.6
				c0-1.4,0.6-2.6,1.7-3.5c1.1-0.9,2.6-1.4,4.3-1.4c1,0,1.9,0.2,2.7,0.5c0.7,0.4,1.4,0.9,2,1.7l-2.2,2.1c-0.3-0.5-0.6-0.9-1-1.1
				c-0.4-0.2-0.9-0.4-1.5-0.4c-0.7,0-1.3,0.2-1.7,0.5c-0.5,0.4-0.7,0.8-0.7,1.4c0,0.9,0.9,1.7,2.6,2.5c0.4,0.1,0.6,0.3,0.8,0.4
				c1.4,0.7,2.5,1.4,3.2,2.2c0.7,0.8,1,1.8,1,2.8c0,1.6-0.5,2.9-1.6,3.8c-1.1,0.9-2.6,1.4-4.4,1.4c-1.3,0-2.4-0.2-3.3-0.7
				C412,165.1,411.3,164.5,410.8,163.6z"/>
			<path class="st0" d="M430.1,165.8v-17h3.6v17H430.1z"/>
			<path class="st0" d="M448.8,151.8v13.9h-3.7v-13.9H441v-3.1h12v3.1C452.9,151.8,448.8,151.8,448.8,151.8z"/>
			<path class="st0" d="M458.1,165.8l6.5-17h4.2l6.6,17h-4.1l-1.4-3.6h-6.6l-1.2,3.6H458.1z M468.9,159.3l-1.9-5.5
				c0-0.2-0.1-0.5-0.2-0.8c-0.1-0.4-0.2-0.9-0.3-1.4c-0.1,0.5-0.2,1-0.3,1.5c-0.1,0.4-0.2,0.7-0.2,0.9l-1.8,5.4L468.9,159.3
				L468.9,159.3z M470.1,142.8l-3.6,4.3h-1.7l2.3-4.3H470.1z"/>
			<path class="st0" d="M494.2,165.8H490l-4.5-8v8h-3.6v-17h5.2c2.1,0,3.6,0.4,4.7,1.2c1,0.8,1.5,2,1.5,3.6c0,1.2-0.4,2.2-1.1,3
				c-0.7,0.8-1.6,1.3-2.7,1.4L494.2,165.8z M485.5,156h0.5c1.5,0,2.4-0.2,2.9-0.5s0.7-0.9,0.7-1.7c0-0.8-0.3-1.4-0.8-1.8
				c-0.5-0.4-1.5-0.5-2.9-0.5h-0.5V156z"/>
			<path class="st0" d="M501.1,165.8v-17h3.6v17H501.1z"/>
			<path class="st0" d="M530.9,157.3c0,1.2-0.2,2.4-0.7,3.5c-0.5,1.1-1.1,2-2,2.9c-0.9,0.9-1.9,1.5-3,1.9s-2.3,0.7-3.4,0.7
				c-1,0-2.1-0.2-3.1-0.5c-1-0.4-1.9-0.9-2.7-1.5c-1.1-0.9-1.9-1.9-2.5-3.1c-0.6-1.2-0.9-2.5-0.9-3.8c0-1.2,0.2-2.4,0.7-3.4
				c0.5-1.1,1.1-2,2-2.9c0.9-0.8,1.9-1.5,3-1.9c1.1-0.5,2.3-0.7,3.5-0.7c1.2,0,2.3,0.2,3.5,0.7c1.1,0.5,2.1,1.1,3,1.9
				c0.9,0.8,1.5,1.8,2,2.9C530.6,154.9,530.9,156.1,530.9,157.3z M521.8,163c1.5,0,2.8-0.5,3.8-1.6c1-1.1,1.5-2.4,1.5-4.1
				c0-1.6-0.5-3-1.5-4.1c-1-1.1-2.3-1.7-3.8-1.7c-1.5,0-2.8,0.5-3.8,1.6c-1,1.1-1.5,2.5-1.5,4.1c0,1.6,0.5,3,1.5,4.1
				C518.9,162.4,520.2,163,521.8,163z"/>
		</g>
	</g>
	<g>
		<g>
			<path class="st0" d="M169.7,93.7c0,3.6,0.1,6.2,0.2,7.7c0.1,1.5,0.5,2.9,1,4c0.1,0.2,0.2,0.5,0.3,0.8c0.1,0.3,0.3,0.6,0.6,0.9
				c1.1,1.9,2.6,3.3,4.5,4.3c1.9,1,4,1.5,6.3,1.5c2.6,0,4.9-0.5,6.9-1.6c2.1-1.1,3.6-2.6,4.6-4.5c0.1-0.3,0.3-0.6,0.5-0.9
				c0.1-0.3,0.3-0.5,0.3-0.7c0.5-1.2,0.9-2.6,1-4.2c0.1-1.6,0.2-4,0.2-7.3V52.9h19.5v43.3c0,5.2-0.5,9.4-1.4,12.7
				c-0.9,3.3-2.5,6.3-4.7,9.2c-0.2,0.2-0.4,0.5-0.6,0.7s-0.4,0.5-0.6,0.7c-3.2,3.5-6.9,6.2-11.3,7.9c-4.4,1.7-9.4,2.6-15,2.6
				c-5.5,0-10.6-1-15.4-3c-4.8-2-8.5-4.7-11.1-8.2c-2-2.6-3.3-5.6-4.2-9c-0.8-3.4-1.2-7.9-1.2-13.6V52.9h19.5L169.7,93.7L169.7,93.7
				z"/>
			<path class="st0" d="M223.9,52.9h19.5l36,46v-46H299v75.3h-19.5c0,0-0.1,0-0.1,0l-36-46v46h-19.5L223.9,52.9L223.9,52.9z"/>
			<path class="st0" d="M326.9,128.2h-19.5V52.9h19.5V128.2z"/>
			<path class="st0" d="M355.7,69.5v12.5h23.7l-6.7,16.6h-17v29.6h-19.5V52.9h52.1l-6.7,16.6H355.7z"/>
			<path class="st0" d="M398.1,115.1l-5.2,13.1h-20.6l28.9-75.3h21.3l28.3,75.3H430l-4.9-13.1H398.1z M411.8,76.3l-8.2,23.9h16.3
				L411.8,76.3z"/>
			<path class="st0" d="M503.1,78.6c-2.3-2.7-4.8-4.8-7.5-6.1c-2.8-1.4-5.7-2.1-9-2.1c-5.9,0-10.9,1.9-14.8,5.6
				c-3.9,3.8-5.9,8.5-5.9,14.3c0,6.4,1.9,11.5,5.7,15.3c3.8,3.8,8.9,5.7,15.3,5.7c2.9,0,5.6-0.7,8.4-2s5.3-3.3,7.8-5.9v23.1
				c-0.5,0.1-0.9,0.3-1.4,0.5c-0.5,0.1-1,0.3-1.4,0.5c-2.3,0.8-4.7,1.4-7,1.9c-2.4,0.5-4.8,0.8-7.4,0.8c-11.4,0-20.9-3.8-28.7-11.3
				c-7.8-7.5-11.6-16.8-11.6-27.9c0-11.3,3.9-20.7,11.7-28.3c7.8-7.6,17.6-11.3,29.2-11.3c2.4,0,4.9,0.3,7.6,1
				c2.7,0.6,5.7,1.6,9,2.9L503.1,78.6L503.1,78.6z"/>
			<path class="st0" d="M582.5,72.5c-2.1-1.7-4.2-3-6.3-3.8c-2.1-0.8-4.1-1.2-6.1-1.2c-2.6,0-4.8,0.6-6.4,1.9
				c-1.6,1.2-2.4,2.8-2.4,4.8c0,1.8,0.9,3.2,2.6,4.2c1.7,1,3.9,1.9,6.4,2.8c1.1,0.4,2.3,0.7,3.4,1.1c1.2,0.3,2.3,0.7,3.6,1.2
				c4,1.4,7.7,3.6,11,6.4s5,7.3,5,13.4c0,0.8,0,1.7-0.1,2.7c-0.1,0.9-0.2,1.9-0.3,2.9c-0.3,1.6-0.7,3.1-1.1,4.6
				c-0.4,1.5-0.9,2.8-1.3,3.7c-2,3.9-5.4,7.1-10.2,9.5c-4.7,2.4-9.9,3.6-15.5,3.6c-4.8,0-9.5-0.7-14.2-2.1
				c-4.6-1.4-8.9-3.5-12.9-6.4l8.4-15.7c2,1.7,4,3.2,5.9,4.3c1.9,1.1,3.8,2,5.6,2.6c1,0.2,1.9,0.4,2.9,0.6c0.9,0.1,1.9,0.2,2.9,0.2
				c2.9,0,5.2-0.7,6.9-2c1.7-1.4,2.6-3.2,2.6-5.4c0-2.2-1-3.8-2.9-4.9c-2-1.1-4.3-2.1-7.1-3c-0.9-0.3-1.9-0.6-2.9-0.9s-2-0.6-3.1-1
				c-4-1.4-7.7-3.4-11-6.1c-3.3-2.8-5-7.3-5-13.6c0-7.6,2.3-13.7,7-18.4c4.7-4.7,10.9-7,18.6-7c1.4,0,2.9,0.1,4.3,0.2
				c1.5,0.1,2.9,0.3,4.3,0.6c2.6,0.5,5.2,1.2,7.7,2.1c2.5,0.9,5,1.9,7.4,3.2L582.5,72.5z"/>
			<path class="st0" d="M617.6,115.1l-5.2,13.1h-20.6l28.9-75.3h21.3l28.3,75.3h-20.9l-4.9-13.1H617.6z M631.2,76.3l-8.2,23.9h16.3
				L631.2,76.3z"/>
		</g>
		<g>
			<path class="st0" d="M522.9,39.9c1.5,1.7,6.7,5.3,9.8,15.1c1.9,6.2-0.7,12.8-6.8,14.8c-6.2,2-13.2-1.5-14.3-8
				c-0.8-4.8,2.2-10.2,6.9-11.6c-2.8,5.3-0.7,8.2,0.3,8.2c2.9-0.1,4.5-10.6,3.6-18.3C522.6,40,522.7,40,522.9,39.9z"/>
		</g>
		<path class="st0" d="M512.6,74.5v24.4v29.4h19.5v-11.7V73.8v-5.1c0-0.4-0.5-0.5-0.7-0.1C528.6,74.1,520.5,76.8,512.6,74.5z"/>
	</g>
</g>
</svg>
