<?xml version="1.0" encoding="utf-8"?>
<!-- Generator: Adobe Illustrator 26.0.3, SVG Export Plug-In . SVG Version: 6.00 Build 0)  -->
<svg version="1.1" id="Camada_1" xmlns="http://www.w3.org/2000/svg" xmlns:xlink="http://www.w3.org/1999/xlink" x="0px" y="0px"
	 viewBox="0 0 613 259.3" style="enable-background:new 0 0 613 259.3;" xml:space="preserve">
<style type="text/css">
	.st0{fill:#FFFFFF;}
</style>
<g>
	<path class="st0" d="M362.5,251.1c-3.7,2.7-8.2,4.8-13.6,6.2c-5.4,1.4-11.1,2-17,2c-15.5,0-27.4-3.9-35.9-11.8
		c-8.5-7.9-12.7-19.5-12.7-34.8v-53.4h-20v-29h20V98.7H321v31.6h32.4v29H321v52.9c0,5.5,1.4,9.7,4.2,12.7c2.8,3,6.8,4.5,12,4.5
		c6,0,11-1.6,15.2-4.8L362.5,251.1z"/>
	<g>
		<g>
			<path class="st0" d="M575.9,30.7c-11.5,0-21.9,5.3-28.7,13.5c-42.7,50.4-60,50.3-102.7,0c-6.8-8.3-17.1-13.5-28.7-13.5
				c-20.5,0-37.1,16.6-37.1,37.1s16.6,37.1,37.1,37.1c22.9,0,48.1,0.6,66.4,16.1c3.7,3.1,8.4,4.9,13.6,4.9s9.9-1.9,13.6-4.9
				c18.3-15.6,43.5-16.1,66.4-16.1c20.5,0,37.1-16.6,37.1-37.1C613,47.3,596.4,30.7,575.9,30.7z"/>
			
				<ellipse transform="matrix(0.2298 -0.9732 0.9732 0.2298 353.4821 505.2239)" class="st0" cx="495.9" cy="29.3" rx="29.3" ry="29.3"/>
		</g>
	</g>
	<g>
		<g>
			<path class="st0" d="M32.7,257.4l-9.9-14.3h-0.6H11.9v14.3H0V206h22.2c4.5,0,8.5,0.8,11.8,2.3c3.3,1.5,5.9,3.7,7.7,6.4
				c1.8,2.8,2.7,6.1,2.7,9.9s-0.9,7.1-2.8,9.9s-4.4,4.9-7.8,6.3l11.5,16.5L32.7,257.4L32.7,257.4z M29.7,218
				c-1.9-1.5-4.6-2.3-8.1-2.3h-9.7v17.9h9.7c3.6,0,6.3-0.8,8.1-2.4c1.9-1.6,2.8-3.8,2.8-6.6C32.5,221.8,31.5,219.6,29.7,218z"/>
			<path class="st0" d="M93.6,247.8v9.5H53.9V206h38.8v9.5h-27v11.1h23.8v9.2H65.7v11.9H93.6z"/>
			<path class="st0" d="M103.1,206h23.3c5.6,0,10.5,1.1,14.8,3.2c4.3,2.1,7.6,5.1,10,9s3.6,8.4,3.6,13.5s-1.2,9.6-3.6,13.5
				s-5.7,6.9-10,9s-9.2,3.2-14.8,3.2h-23.3V206z M125.8,247.6c5.1,0,9.2-1.4,12.3-4.3c3.1-2.9,4.6-6.7,4.6-11.6s-1.5-8.8-4.6-11.6
				c-3.1-2.9-7.1-4.3-12.3-4.3H115v31.8L125.8,247.6L125.8,247.6z"/>
			<path class="st0" d="M203.4,247.8v9.5h-39.7V206h38.8v9.5h-27v11.1h23.8v9.2h-23.8v11.9H203.4z"/>
		</g>
	</g>
	<path class="st0" d="M236.6,257.4c14.6,0.5,19.1-12.9,19.2-13.1v-114h-37.7v127H236.6z"/>
	<path class="st0" d="M451.3,257.4h16.1c13.8,0.4,18.5-11.3,19.1-12.9v-61.2c0-19.3-5.4-33.8-16.2-43.3s-26.2-14.4-46.4-14.4
		c-10.5,0-20.6,1.4-30.5,4.1c-9.9,2.7-18.4,6.6-25.5,11.6l13.5,26.3c4.7-3.7,10.3-6.6,17-8.8s13.5-3.3,20.4-3.3
		c10,0,17.5,2.2,22.5,6.6c5,4.4,7.5,10.7,7.5,18.9H419c-19,0-33,3.5-42.1,10.4s-13.6,16.4-13.6,28.5c0,7.6,1.9,14.3,5.8,20.3
		c3.9,5.9,9.5,10.6,16.8,14c7.3,3.4,16,5.1,26,5.1c19.3,0,32.5-6,39.6-18.1L451.3,257.4L451.3,257.4z M448.9,216.3
		c-2.1,5.8-5.6,10.2-10.6,13.2c-5,3-10.7,4.5-17.1,4.5c-6.6,0-11.8-1.4-15.6-4.2s-5.7-6.6-5.7-11.5c0-10.1,7.7-15.2,23.2-15.2h25.8
		V216.3z"/>
</g>
</svg>
