<?xml version="1.0" encoding="utf-8"?>
<!-- Generator: Adobe Illustrator 26.0.3, SVG Export Plug-In . SVG Version: 6.00 Build 0)  -->
<svg version="1.1" id="Layer_1" xmlns="http://www.w3.org/2000/svg" xmlns:xlink="http://www.w3.org/1999/xlink" x="0px" y="0px"
	 viewBox="0 0 670.27 225.06" style="enable-background:new 0 0 670.27 225.06;" xml:space="preserve">
<style type="text/css">
	.st0{fill:#FFFFFF;}
</style>
<g>
	<rect id="XMLID_3_" x="87.79" class="st0" width="82.61" height="84.81"/>
	<path id="XMLID_4_" class="st0" d="M125.65,143.08c1.67-31.41-18.53-47.85-44.6-47.12H0v40.83l84.81,0.31v87.64l40.83,0V143.08
		L125.65,143.08z"/>
	<path id="XMLID_5_" class="st0" d="M178.51,96.28c-26.07-0.73-46.28,15.7-44.6,47.12v81.67l40.83,0v-87.64l84.81-0.31V96.28
		L178.51,96.28L178.51,96.28z"/>
	<g>
		<path class="st0" d="M357.76,138.24c-2.2,1.1-7.85,2.51-15.08,2.51c-21.44,0-31.02-12.33-31.02-26.55
			c0-18.38,14.45-28.27,31.81-28.27c6.83,0,12.57,1.26,15.16,2.67l-3.06,11.47c-2.67-1.1-6.6-2.2-11.54-2.2
			c-8.88,0-16.73,4.79-16.73,15.31c0,9.11,6.2,15.47,17.12,15.47c4.08,0,8.56-0.79,11.07-1.81L357.76,138.24z"/>
		<path class="st0" d="M381.01,86.88v28.74c0,8.33,3.06,13.67,9.82,13.67c6.75,0,9.82-4.95,9.82-13.67V86.88h14.84v28.35
			c0,17.28-9.19,25.52-25.29,25.52c-15.16,0-24.03-7.7-24.03-25.92V86.88H381.01z"/>
		<path class="st0" d="M425.54,86.88h14.84v40.53h22.85v12.41h-37.7V86.88z"/>
		<path class="st0" d="M472.03,98.98h-14.92V86.88h45v12.09h-15.24v40.84h-14.84V98.98z"/>
		<path class="st0" d="M523.94,86.88v28.74c0,8.33,3.06,13.67,9.82,13.67s9.82-4.95,9.82-13.67V86.88h14.84v28.35
			c0,17.28-9.19,25.52-25.29,25.52c-15.16,0-24.03-7.7-24.03-25.92V86.88H523.94z"/>
		<path class="st0" d="M568.48,87.59c4.16-0.63,10.68-1.18,18.69-1.18c8.87,0,14.76,1.26,18.85,4.16c3.38,2.43,5.5,6.28,5.5,11.62
			c0,7.07-5.73,11.54-9.42,12.72v0.31c3.53,1.49,5.5,4.95,6.99,9.35c1.81,5.42,3.61,13.19,4.63,15.24h-15.08
			c-0.86-1.57-2.28-5.26-4.08-12.09c-1.65-6.36-3.77-7.62-8.72-7.62h-2.67v19.71h-14.69V87.59z M583.16,109.66h4.4
			c5.81,0,9.27-2.36,9.27-6.36s-2.98-6.05-8.01-6.05c-3.3,0-4.87,0.16-5.65,0.31V109.66z"/>
		<path class="st0" d="M636.57,126.93l-3.38,12.88h-15.63l16.73-52.93h20.26l17.83,52.93h-16.49l-3.93-12.88H636.57z M649.68,116.1
			l-2.83-9.35c-0.94-2.98-2.04-6.83-2.98-9.9h-0.16c-0.86,3.06-1.65,6.91-2.51,9.97l-2.51,9.27H649.68z"/>
	</g>
</g>
</svg>
