<?xml version="1.0" encoding="utf-8"?>
<!-- Generator: Adobe Illustrator 26.0.3, SVG Export Plug-In . SVG Version: 6.00 Build 0)  -->
<svg version="1.1" id="Layer_1" xmlns="http://www.w3.org/2000/svg" xmlns:xlink="http://www.w3.org/1999/xlink" x="0px" y="0px"
	 viewBox="0 0 735.74 246.59" style="enable-background:new 0 0 735.74 246.59;" xml:space="preserve">
<style type="text/css">
	.st0{fill:#FFFFFF;}
</style>
<g>
	<path class="st0" d="M237.07,76.38c0,17-6.09,33.04-17.24,45.68l-19.48-19.48c6-7.4,9.26-16.54,9.26-26.2
		c0-11.13-4.33-21.6-12.21-29.48c-7.86-7.88-18.35-12.21-29.48-12.21c-9.66,0-18.8,3.27-26.2,9.26c-1.15,0.92-2.24,1.9-3.29,2.94
		l-0.48,0.48l-19.41,19.41l-3.61,3.59l-51.77,51.78l-19.41-19.41l51.77-51.78l3.61-3.59l19.41-19.41l0.48-0.48
		c1.04-1.04,2.12-2.05,3.21-3.02c12.64-11.13,28.69-17.24,45.68-17.24c18.48,0,35.84,7.18,48.89,20.25
		C229.88,40.54,237.07,57.91,237.07,76.38z"/>
</g>
<g>
	<path class="st0" d="M193.33,148.78l-51.78,51.77l-3.59,3.61l-19.41,19.41l-0.52,0.52c-1.04,1.04-2.1,2.01-3.2,2.96
		c-13.02,11.49-29.36,17.26-45.7,17.26c-8.85,0-17.72-1.69-26.05-5.05c-8.31-3.38-16.12-8.44-22.86-15.17
		c-25.93-25.93-26.9-67.48-2.96-94.61l19.46,19.46c-13.27,16.36-12.3,40.51,2.91,55.73c15.23,15.21,39.38,16.18,55.73,2.91
		c1.11-0.9,2.21-1.87,3.25-2.91l0.52-0.52l19.41-19.41l3.59-3.61l51.78-51.77L193.33,148.78z"/>
</g>
<g>
	<path class="st0" d="M114.93,181.14l-19.41,19.41l-74.78-74.78l-0.48-0.48c-1.04-1.04-2.03-2.12-3-3.21C6.1,109.42,0,93.39,0,76.38
		c0-18.48,7.2-35.84,20.25-48.89C33.33,14.42,50.69,7.24,69.15,7.24c17,0,33.06,6.1,45.68,17.24L95.36,43.96
		c-7.4-6-16.55-9.26-26.21-9.26c-11.13,0-21.6,4.33-29.48,12.21c-7.86,7.88-12.21,18.35-12.21,29.48c0,9.66,3.27,18.8,9.27,26.2
		c0.93,1.15,1.9,2.24,2.94,3.29l0.48,0.48L114.93,181.14z"/>
</g>
<g>
	<path class="st0" d="M237.07,175.19c0,17.7-6.73,35.41-20.22,48.89c-13.48,13.48-31.19,20.22-48.89,20.22
		c-16.36,0-32.7-5.76-45.71-17.26l19.46-19.46c16.38,13.27,40.51,12.3,55.73-2.91c15.23-15.23,16.2-39.38,2.93-55.73
		c-0.92-1.11-1.89-2.21-2.93-3.25l-75.31-75.31l19.41-19.41l75.31,75.31c1.04,1.04,2.03,2.1,2.98,3.2
		C231.32,142.5,237.07,158.85,237.07,175.19z"/>
</g>
<g>
	<g>
		<path class="st0" d="M295.22,116.41v28.55h-22.39V58.84h35.64c7.54,0,13.48,1.37,17.82,4.23c8.11,5.37,12.11,13.48,12.11,24.44
			c0,18.73-10.39,28.9-29.12,28.9H295.22z M295.22,76.89v21.47h7.42c8.57,0,12.33-3.31,12.33-10.62c0-7.2-4.11-10.85-12.22-10.85
			H295.22z"/>
		<path class="st0" d="M404.53,119.49h-43.52c0,8.79,4.23,13.14,12.56,13.14c4.45,0,7.88-1.83,10.16-5.48h19.99
			c-4,13.36-14.16,20.1-30.27,20.1c-9.94,0-18.05-2.86-24.21-8.45c-6.05-5.6-9.14-13.13-9.14-22.5c0-19.65,12.45-31.52,32.55-31.52
			c19.99,0,31.87,12.11,31.87,32.55V119.49z M385.22,107.5c-1.37-5.82-5.94-9.37-11.99-9.37c-6.4,0-10.62,3.43-11.65,9.37H385.22z"
			/>
		<path class="st0" d="M456.95,50.16h20.79v94.8h-20.79v-6.51c-4.45,5.6-10.39,8.34-17.93,8.34c-8.45,0-15.53-2.97-21.13-8.91
			c-5.6-6.05-8.45-13.48-8.45-22.39c0-8.57,2.74-15.88,8.22-21.93c5.48-6.05,12.56-9.02,21.13-9.02c7.31,0,13.36,2.51,18.16,7.65
			V50.16z M434.79,125.09c2.63,2.63,5.71,3.88,9.48,3.88c3.65,0,6.74-1.26,9.37-3.88c2.63-2.63,4-5.71,4-9.37
			c0-3.77-1.37-6.85-4-9.48c-2.63-2.63-5.71-3.88-9.37-3.88s-6.85,1.26-9.48,3.88c-2.63,2.63-3.88,5.71-3.88,9.25
			C430.91,119.26,432.16,122.46,434.79,125.09z"/>
		<path class="st0" d="M487.21,144.96V86.37h20.67v9.59c4.45-6.97,10.85-10.39,19.3-10.39c1.6,0,2.97,0.11,4,0.23v19.76
			c-2.74-1.37-5.71-2.06-8.91-2.06c-9.59,0-14.39,5.48-14.39,16.33v25.13H487.21z"/>
		<path class="st0" d="M543.98,93.11c6.74-5.94,15.08-8.91,25.24-8.91c10.16,0,18.5,2.97,25.13,8.91
			c6.74,5.82,10.05,13.36,10.05,22.61s-3.31,16.9-10.05,22.73c-6.62,5.82-15.08,8.68-25.47,8.68c-10.17,0-18.5-2.97-25.01-8.8
			c-6.51-5.94-9.82-13.71-9.82-23.19C534.04,106.36,537.35,99.05,543.98,93.11z M569.22,128.97c3.65,0,6.74-1.26,9.37-3.88
			c2.63-2.63,4-5.82,4-9.59c0-3.77-1.37-6.85-4-9.48c-2.63-2.63-5.71-3.88-9.37-3.88s-6.85,1.26-9.48,3.88
			c-2.63,2.63-3.88,5.71-3.88,9.37C555.86,123.15,561.91,128.97,569.22,128.97z"/>
		<path class="st0" d="M330.63,244.3l-5.48-14.96h-30.84l-5.94,14.96h-23.76l33.12-86.12h24.44l32.44,86.12H330.63z M300.48,212.32
			h18.62l-9.25-27.53L300.48,212.32z"/>
		<path class="st0" d="M359.29,244.3v-58.59h20.67v7.2c5.6-5.37,11.99-8.11,18.96-8.11c8.68,0,15.3,3.65,19.87,10.96
			c4.68-7.42,11.31-11.08,19.87-11.08c11.88,0,19.76,6.85,19.76,21.59v38.03h-20.67v-28.9c0-11.08-3.08-14.51-8.68-14.51
			c-6.62,0-9.94,4.8-9.94,14.51v28.9h-20.67v-28.9c0-11.54-2.63-14.96-9.02-14.96c-5.94,0-9.48,3.43-9.48,14.96v28.9H359.29z"/>
		<path class="st0" d="M530.16,218.83h-43.52c0,8.8,4.23,13.14,12.56,13.14c4.45,0,7.88-1.83,10.16-5.48h19.99
			c-4,13.36-14.16,20.1-30.27,20.1c-9.94,0-18.05-2.86-24.21-8.45c-6.05-5.6-9.14-13.14-9.14-22.5c0-19.64,12.45-31.52,32.55-31.52
			c19.99,0,31.87,12.11,31.87,32.55V218.83z M510.86,206.84c-1.37-5.82-5.94-9.37-11.99-9.37c-6.4,0-10.62,3.43-11.65,9.37H510.86z
			 M504.69,150.08l13.13,9.48l-19.87,17.59l-9.59-7.08L504.69,150.08z"/>
		<path class="st0" d="M537.35,244.3v-58.59h20.67v9.59c4.45-6.97,10.85-10.39,19.3-10.39c1.6,0,2.97,0.12,4,0.23v19.76
			c-2.74-1.37-5.71-2.06-8.91-2.06c-9.59,0-14.39,5.48-14.39,16.33v25.13H537.35z"/>
		<path class="st0" d="M588.06,154.99c4.57-4.57,11.88-4.57,16.45,0c4.57,4.57,4.57,11.88,0,16.45c-4.57,4.57-11.88,4.57-16.45,0
			C583.49,166.87,583.49,159.56,588.06,154.99z M586.01,185.71h20.67v58.59h-20.67V185.71z"/>
		<path class="st0" d="M660.47,204.78c-3.54-2.4-7.2-3.65-10.85-3.65c-8.11,0-14.16,5.83-14.16,14.16c0,8.22,6.05,14.05,14.16,14.05
			c3.88,0,7.54-1.37,10.85-4v17.59c-5.14,2.17-9.94,3.31-14.51,3.31c-8.79,0-16.33-2.86-22.61-8.57
			c-6.28-5.71-9.37-13.13-9.37-22.16c0-9.14,3.08-16.68,9.25-22.61c6.28-5.94,14.05-8.91,23.3-8.91c5.03,0,9.71,1.03,13.93,3.2
			V204.78z"/>
		<path class="st0" d="M675.32,192.45c6.74-5.94,15.08-8.91,25.24-8.91c10.16,0,18.5,2.97,25.13,8.91
			c6.74,5.82,10.05,13.36,10.05,22.61s-3.31,16.9-10.05,22.73c-6.62,5.83-15.08,8.68-25.47,8.68c-10.17,0-18.5-2.97-25.01-8.8
			c-6.51-5.94-9.82-13.71-9.82-23.19C665.38,205.7,668.7,198.39,675.32,192.45z M700.56,228.31c3.65,0,6.74-1.26,9.37-3.88
			c2.63-2.63,4-5.82,4-9.59c0-3.77-1.37-6.85-4-9.48c-2.63-2.63-5.71-3.88-9.37-3.88s-6.85,1.26-9.48,3.88
			c-2.63,2.63-3.88,5.71-3.88,9.37C687.2,222.49,693.25,228.31,700.56,228.31z"/>
	</g>
	<g>
		<path class="st0" d="M286.3,7.24v4.1h-8.07v5.35h7.59v4.07h-7.59v10.63h-4.71V7.24H286.3z"/>
		<path class="st0" d="M292.99,7.24h4.71v13.83c0,2.02,0.26,3.46,0.74,4.29c0.9,1.5,2.31,2.27,4.26,2.27c1.89,0,3.49-0.96,4.26-2.27
			c0.48-0.83,0.74-2.27,0.74-4.29V7.24h4.71V22c0,6.53-3.81,9.93-9.7,9.93c-5.89,0-9.7-3.39-9.7-9.93V7.24z"/>
		<path class="st0" d="M325.24,31.38h-4.71V6.69h3.23l14.73,16.81V7.24h4.71v24.62h-3.27l-14.7-16.81V31.38z"/>
		<path class="st0" d="M351.3,31.38V7.24h6.92c3.94,0,7.08,1.15,9.41,3.43c2.37,2.27,3.55,5.16,3.55,8.61
			c0,3.43-1.18,6.28-3.59,8.61c-2.37,2.34-5.51,3.49-9.45,3.49H351.3z M356,11.34v15.98h1.25c3.3,0,5.67-0.86,7.11-2.56
			c1.31-1.6,1.99-3.43,1.99-5.44c0-2.24-0.77-4.16-2.31-5.76c-1.41-1.47-3.68-2.21-6.79-2.21H356z"/>
		<path class="st0" d="M393.4,31.38l-2.05-5.09h-9.86l-2.21,5.09h-5l10.47-24.66h3.52l10.18,24.66H393.4z M382.96,22.48h6.92
			l-3.39-8.68L382.96,22.48z"/>
		<path class="st0" d="M420.39,13.74c-1.82-1.83-3.81-2.75-5.92-2.75c-2.21,0-4.1,0.8-5.64,2.43c-1.5,1.6-2.27,3.59-2.27,5.99
			c0,2.34,0.77,4.32,2.27,5.89c1.54,1.57,3.46,2.34,5.73,2.34c2.11,0,4.07-0.9,5.83-2.66v5.54c-2.08,0.93-4.03,1.41-5.92,1.41
			c-3.59,0-6.6-1.22-9.06-3.62c-2.47-2.43-3.68-5.38-3.68-8.87c0-3.55,1.25-6.56,3.71-9.03c2.47-2.47,5.51-3.71,9.06-3.71
			c1.99,0,3.94,0.48,5.89,1.47V13.74z M414.05,32.92l3.04,1.83l-4.39,4.64l-2.31-1.44L414.05,32.92z"/>
		<path class="st0" d="M444.41,31.38l-2.05-5.09h-9.86l-2.21,5.09h-5l10.47-24.66h3.52l10.18,24.66H444.41z M430.93,4.51
			c0.19-1.41,0.64-2.53,1.34-3.33c0.67-0.8,1.54-1.22,2.56-1.22c0.8,0,1.76,0.22,2.88,0.7c1.09,0.45,1.86,0.67,2.27,0.67
			c0.54,0,1.09-0.45,1.57-1.34h2.5c-0.54,2.85-2.11,4.58-4.26,4.58c-0.48,0-1.31-0.22-2.53-0.67c-1.18-0.48-1.99-0.7-2.4-0.7
			c-0.61,0-1.12,0.45-1.47,1.31H430.93z M433.97,22.48h6.92l-3.39-8.68L433.97,22.48z"/>
		<path class="st0" d="M456.47,10.37c2.5-2.47,5.54-3.68,9.09-3.68c3.62,0,6.66,1.22,9.19,3.65s3.78,5.38,3.78,8.87
			c0,3.55-1.25,6.56-3.75,9.03c-2.47,2.47-5.54,3.68-9.22,3.68c-3.62,0-6.66-1.22-9.12-3.65c-2.47-2.47-3.71-5.48-3.71-9.06
			C452.73,15.79,453.98,12.84,456.47,10.37z M459.87,25.2c1.57,1.63,3.46,2.43,5.7,2.43c2.21,0,4.13-0.83,5.7-2.53
			c1.6-1.7,2.4-3.65,2.4-5.89c0-2.27-0.8-4.23-2.43-5.83c-1.6-1.6-3.49-2.4-5.67-2.4c-2.18,0-4.07,0.8-5.64,2.43
			c-1.57,1.6-2.37,3.52-2.37,5.8C457.56,21.58,458.33,23.57,459.87,25.2z"/>
	</g>
</g>
</svg>
